PathFileType	4	(x/y/z)	S01_M20_T04.trc
DataRate	CameraRate	NumFrames	NumMarkers	Units	OrigDataRate	OrigDataStartFrame	OrigNumFrames
240	240	6	51	mm	240	181	720
Frame#	Time	Sternum			R.Acromium			L.Acromium			Top.Head			R.ASIS			L.ASIS			R.PSIS			L.PSIS			R.Great.Tro			L.Great.Tro			R.Iliac.Crest			L.Iliac.Crest			V.Sacral			R.Thigh.Upper.Post			R.Thigh.Lower.Ant			R.Thigh.Lower.Post			R.Thigh.Upper.Ant			R.Knee.Lat			R.Knee.Med			R.Shank.Upper.Post			R.Shank.Lower.Ant			R.Shank.Lower.Post			R.Shank.Upper.Ant			R.Ankle.Lat			R.Ankle.Med			R.Heel.Upper			R.Heel.Med			R.Heel.Lat			R.Toe.Lat			R.Toe.Med			R.Toe.Tip			L.Thigh.Upper.Post			L.Thigh.Lower.Ant			L.Thigh.Lower.Post			L.Thigh.Upper.Ant			L.Knee.Lat			L.Knee.Med			L.Shank.Upper.Post			L.Shank.Lower.Ant			L.Shank.Lower.Post			L.Shank.Upper.Ant			L.Ankle.Lat			L.Ankle.Med			L.Heel.Upper			L.Heel.Med			L.Heel.Lat			L.Toe.Lat			L.Toe.Med			L.Toe.Tip			Cervical.Spine			Back			
		X1	Y1	Z1	X2	Y2	Z2	X3	Y3	Z3	X4	Y4	Z4	X5	Y5	Z5	X6	Y6	Z6	X7	Y7	Z7	X8	Y8	Z8	X9	Y9	Z9	X10	Y10	Z10	X11	Y11	Z11	X12	Y12	Z12	X13	Y13	Z13	X14	Y14	Z14	X15	Y15	Z15	X16	Y16	Z16	X17	Y17	Z17	X18	Y18	Z18	X19	Y19	Z19	X20	Y20	Z20	X21	Y21	Z21	X22	Y22	Z22	X23	Y23	Z23	X24	Y24	Z24	X25	Y25	Z25	X26	Y26	Z26	X27	Y27	Z27	X28	Y28	Z28	X29	Y29	Z29	X30	Y30	Z30	X31	Y31	Z31	X32	Y32	Z32	X33	Y33	Z33	X34	Y34	Z34	X35	Y35	Z35	X36	Y36	Z36	X37	Y37	Z37	X38	Y38	Z38	X39	Y39	Z39	X40	Y40	Z40	X41	Y41	Z41	X42	Y42	Z42	X43	Y43	Z43	X44	Y44	Z44	X45	Y45	Z45	X46	Y46	Z46	X47	Y47	Z47	X48	Y48	Z48	X49	Y49	Z49	X50	Y50	Z50	X51	Y51	Z51	

181	0.75	-89.647	1268.5	258.36	-192.78	1523	432.5	-228.88	1526.8	104.11	-261.21	1837	250.3	-119.87	1014.7	419.62	-138.29	1008.2	152.6	-361.04	1060.2	346.99	-373.12	1062.1	244.56	-189.23	969.89	510.99	-258.38	967.34	85.996	-201.92	1117.6	489.52	-255.35	1090.3	85.485	-383.57	1025.7	294.27	-90.494	675.42	499.61	6.0083	643.77	478.14	-48.347	599.33	476.23	-34.511	723.06	498.57	-2.1726	556.35	472.91	17.58	561.9	324.82	-13.121	389.81	483.79	75.334	330.36	453.49	5.2144	322.18	471.25	52.486	398.56	471.61	79.983	124.97	437.84	118.1	152.33	352.77	32.145	77.691	369.03	60.53	60.386	340.15	50.513	48.6	402.31	224.32	92.699	483.99	262.08	130.32	371.04	306.5	164.2	435.79	-362.58	710.9	120.28	-300.16	619.9	117.24	-377.31	622.08	137.23	-294.67	713.42	96.621	-357.19	525.02	127.33	-323.44	521.36	268.11	-443.13	397.06	119.5	-399.71	297.27	143.18	-457.63	320.92	125.91	-384.47	372.14	131.82	-506.02	110.27	174.72	-477.39	119.97	270.63	-581.53	81.175	223.12	-569.15	54.277	255.55	-574.41	55.552	193.2	-363.7	36.624	150.54	-336.18	43.988	272.28	-273.54	50.213	219.78	-303.54	1579	278.85	-379.3	1269.9	309.49
182	0.75417	-84.897	1267.2	258.67	-187.74	1521.6	433.13	-224.03	1525.6	104.72	-255.91	1835.8	251.34	-115.09	1013.2	419.63	-133.84	1007	152.6	-356.29	1059	347.34	-368.53	1061.2	244.94	-184.42	968.44	511.02	-254.24	966.52	86.166	-196.97	1116.1	489.76	-250.8	1089.4	85.671	-378.95	1024.7	294.59	-85.603	674.22	499.34	11.026	642.89	477.96	-43.192	598.3	475.89	-29.768	722.02	498.47	2.9659	555.32	472.56	23.324	561.41	324.47	-6.726	388.58	482.64	82.583	330.08	452.93	12.371	321.18	469.99	58.946	398	471.14	89.508	124.7	436.43	128.05	152.95	351.9	42.522	77.656	367.01	71.207	60.768	338.14	60.839	48.394	400.15	233.76	92.885	483.4	272.08	131.87	371.03	315.76	165.38	436.45	-359.95	710.69	120.72	-298	619.37	117.27	-375.05	621.92	137.59	-292.18	712.88	96.689	-355.5	524.75	127.51	-321.2	520.8	268.17	-442.01	397.16	119.89	-398.96	297.16	143.33	-456.83	321.1	126.24	-383.42	371.96	131.98	-505.94	110.48	175.08	-477.06	120.09	270.93	-581.39	81.445	223.61	-568.98	54.485	255.98	-574.38	55.879	193.64	-363.72	36.631	150.56	-336.11	43.951	272.26	-273.48	50.104	219.72	-298.53	1577.8	279.57	-374.47	1268.7	310.09
183	0.75833	-80.124	1265.9	259	-182.69	1520.2	433.79	-219.15	1524.4	105.35	-250.59	1834.7	252.42	-110.3	1011.7	419.65	-129.38	1005.8	152.6	-351.53	1057.9	347.71	-363.94	1060.3	245.32	-179.6	966.99	511.05	-250.1	965.67	86.344	-192	1114.6	490	-246.22	1088.5	85.866	-374.32	1023.8	294.93	-80.655	673.06	499.07	16.109	642.05	477.81	-37.964	597.31	475.56	-24.971	721.03	498.38	8.1464	554.3	472.24	29.161	560.97	324.17	-0.4136	387.37	481.48	89.704	329.77	452.39	19.396	320.19	468.7	65.323	397.43	470.68	98.741	124.42	434.98	137.78	153.56	351.03	52.618	77.725	364.88	81.596	61.239	336.06	70.823	48.254	397.88	242.83	92.869	482.83	281.81	133.23	371.11	324.74	166.27	437.23	-357.26	710.45	121.17	-295.77	618.82	117.32	-372.7	621.74	137.95	-289.63	712.31	96.774	-353.71	524.46	127.7	-318.86	520.21	268.23	-440.81	397.26	120.29	-398.16	297.04	143.5	-455.97	321.27	126.59	-382.3	371.77	132.16	-505.85	110.71	175.47	-476.72	120.22	271.23	-581.24	81.739	224.12	-568.79	54.717	256.43	-574.34	56.225	194.11	-363.74	36.642	150.58	-336.03	43.91	272.24	-273.41	49.987	219.67	-293.49	1576.6	280.3	-369.63	1267.5	310.68
184	0.7625	-75.327	1264.6	259.35	-177.62	1518.7	434.47	-214.24	1523.3	106.01	-245.25	1833.5	253.54	-105.48	1010.2	419.67	-124.91	1004.6	152.59	-346.75	1056.7	348.08	-359.33	1059.3	245.72	-174.77	965.54	511.08	-245.95	964.81	86.531	-187.01	1113	490.25	-241.61	1087.6	86.072	-369.68	1022.8	295.27	-75.647	671.93	498.81	21.258	641.26	477.69	-32.664	596.36	475.25	-20.121	720.08	498.3	13.371	553.29	471.94	35.091	560.57	323.93	5.8178	386.19	480.29	96.698	329.43	451.85	26.291	319.22	467.37	71.616	396.82	470.22	107.68	124.14	433.48	147.29	154.16	350.16	62.428	77.895	362.67	91.691	61.792	333.89	80.458	48.175	395.51	251.53	92.639	482.27	291.28	134.38	371.26	333.44	166.85	438.13	-354.5	710.18	121.63	-293.46	618.25	117.39	-370.27	621.53	138.33	-287	711.73	96.878	-351.84	524.15	127.91	-316.44	519.61	268.31	-439.53	397.35	120.7	-397.31	296.91	143.68	-455.04	321.45	126.95	-381.11	371.56	132.35	-505.74	110.95	175.86	-476.36	120.36	271.55	-581.08	82.058	224.66	-568.59	54.975	256.9	-574.3	56.592	194.59	-363.76	36.657	150.6	-335.94	43.868	272.23	-273.34	49.861	219.62	-288.42	1575.4	281.06	-364.76	1266.2	311.28
185	0.76667	-70.506	1263.3	259.73	-172.53	1517.2	435.19	-209.28	1522.1	106.69	-239.87	1832.2	254.7	-100.65	1008.6	419.69	-120.42	1003.4	152.59	-341.96	1055.6	348.46	-354.72	1058.4	246.12	-169.91	964.1	511.12	-241.79	963.92	86.725	-182	1111.4	490.51	-236.98	1086.7	86.291	-365.03	1021.8	295.63	-70.578	670.84	498.55	26.475	640.51	477.59	-27.291	595.45	474.96	-15.215	719.17	498.22	18.643	552.3	471.66	41.111	560.22	323.73	11.97	385.04	479.09	103.57	329.05	451.31	33.057	318.27	466.01	77.826	396.19	469.75	116.32	123.85	431.94	156.58	154.73	349.28	71.947	78.157	360.37	101.49	62.418	331.64	89.742	48.149	393.05	259.86	92.19	481.72	300.47	135.3	371.49	341.86	167.12	439.12	-351.66	709.87	122.09	-291.07	617.66	117.47	-367.75	621.29	138.72	-284.3	711.12	97.004	-349.87	523.82	128.13	-313.92	518.98	268.39	-438.18	397.43	121.12	-396.39	296.77	143.87	-454.06	321.62	127.32	-379.86	371.33	132.55	-505.63	111.21	176.27	-475.99	120.51	271.87	-580.9	82.404	225.21	-568.39	55.262	257.39	-574.25	56.983	195.09	-363.78	36.677	150.63	-335.85	43.824	272.21	-273.27	49.726	219.57	-283.33	1574.2	281.83	-359.88	1265	311.87
186	0.77083	-65.66	1261.9	260.13	-167.43	1515.7	435.93	-204.29	1521	107.4	-234.48	1831	255.9	-95.803	1007.1	419.72	-115.92	1002.2	152.58	-337.15	1054.4	348.85	-350.1	1057.4	246.54	-165.05	962.65	511.15	-237.63	963.01	86.924	-176.97	1109.8	490.79	-232.34	1085.8	86.524	-360.36	1020.8	296	-65.448	669.79	498.3	31.758	639.81	477.52	-21.844	594.58	474.69	-10.253	718.3	498.16	23.965	551.33	471.41	47.223	559.91	323.58	18.046	383.92	477.87	110.31	328.64	450.78	39.695	317.34	464.63	83.956	395.53	469.29	124.66	123.54	430.35	165.64	155.27	348.4	81.17	78.508	357.99	110.98	63.11	329.33	98.671	48.173	390.49	267.81	91.517	481.17	309.39	135.98	371.79	350	167.05	440.21	-348.76	709.54	122.55	-288.6	617.05	117.58	-365.14	621.03	139.12	-281.51	710.5	97.155	-347.81	523.47	128.36	-311.3	518.32	268.48	-436.75	397.52	121.55	-395.42	296.62	144.08	-453.01	321.79	127.7	-378.53	371.1	132.77	-505.5	111.49	176.69	-475.59	120.67	272.2	-580.72	82.78	225.78	-568.17	55.579	257.89	-574.2	57.401	195.6	-363.8	36.703	150.67	-335.75	43.779	272.2	-273.19	49.583	219.52	-278.21	1572.9	282.62	-354.98	1263.8	312.45
